PathFileType  4	(X/Y/Z) C:\Users\antoi\Documents\MyRepositories\mobilecap\ResultsAnalysis
DataRate	CameraRate	NumFrames	NumMarkers	Units	OrigDataRate	OrigDataStartFrame	OrigNumFrames
100.0	100.0	6	51	mm	100.0	126	143
Frame#	Time	r_knee			r_shank_antsup			r_ankle			r_calc			r_5meta			r_toe			L_knee			L_shank_antsup			L_ankle			L_calc			L_5meta			L_toe			r_sh2			r_sh3			r_sh4			L_sh2			L_sh3			r_thigh1			r_thigh2			r_thigh3			r_thigh4			r_thigh5			L_thigh1			L_thigh2			L_thigh3			L_thigh4			r.ASIS			r.PSIS			L.ASIS			L.PSIS			C7			R_Shoulder			L_Shoulder			R_Sternum			L_Sternum			R_humerus			R_elbow_med			R_elbow_lat			R_forearm			R_wrist_radius			R_wrist_ulna			L_humerus			L_elbow_med			L_elbow_lat			L_forearm			L_wrist_radius			L_wrist_ulna			R_HJC			L_HJC			R_HJC_reg			L_HJC_reg			
		X1	Y1	Z1	X2	Y2	Z2	X3	Y3	Z3	X4	Y4	Z4	X5	Y5	Z5	X6	Y6	Z6	X7	Y7	Z7	X8	Y8	Z8	X9	Y9	Z9	X10	Y10	Z10	X11	Y11	Z11	X12	Y12	Z12	X13	Y13	Z13	X14	Y14	Z14	X15	Y15	Z15	X16	Y16	Z16	X17	Y17	Z17	X18	Y18	Z18	X19	Y19	Z19	X20	Y20	Z20	X21	Y21	Z21	X22	Y22	Z22	X23	Y23	Z23	X24	Y24	Z24	X25	Y25	Z25	X26	Y26	Z26	X27	Y27	Z27	X28	Y28	Z28	X29	Y29	Z29	X30	Y30	Z30	X31	Y31	Z31	X32	Y32	Z32	X33	Y33	Z33	X34	Y34	Z34	X35	Y35	Z35	X36	Y36	Z36	X37	Y37	Z37	X38	Y38	Z38	X39	Y39	Z39	X40	Y40	Z40	X41	Y41	Z41	X42	Y42	Z42	X43	Y43	Z43	X44	Y44	Z44	X45	Y45	Z45	X46	Y46	Z46	X47	Y47	Z47	X48	Y48	Z48	X49	Y49	Z49	X50	Y50	Z50	X51	Y51	Z51	

126	1.25000000	1385.31578	486.82957	-128.53719	1445.39956	406.06266	-147.13636	1445.28599	86.83648	-180.40270	1390.65140	53.37989	-233.49076	1570.26655	55.08947	-145.84618	1598.22216	90.57999	-200.19021	1090.59668	480.93332	-356.14876	1076.05164	384.42934	-340.84053	832.22088	150.44004	-288.08041	753.34426	156.93770	-231.59477	888.08426	36.86672	-309.96502	945.26347	48.65611	-257.82903	1464.86306	295.34231	-160.67027	1385.34633	388.96194	-103.28648	1398.63688	275.27681	-112.95139	1014.17053	443.55456	-370.47115	936.57811	350.70389	-363.01066	1343.87480	759.44508	-79.14112	1383.99668	659.69861	-107.17864	1347.79975	611.09970	-74.93027	1246.54156	711.82439	-53.86671	1291.31131	610.00009	-86.50251	1239.49994	698.17859	-390.53051	1216.90689	562.65010	-364.50478	1135.09775	711.50183	-415.52478	1110.31321	584.97921	-377.32284	1326.56816	926.90360	-118.43275	1115.82409	967.17684	-183.09877	1308.92485	912.61216	-376.16193	1114.45587	972.27213	-277.70797	1171.70689	1423.31994	-242.30857	1244.18373	1382.01329	-76.35052	1256.70114	1386.10468	-399.03030	1295.53743	1343.44230	-219.35204	1293.75116	1345.58606	-265.53948	1270.12613	1249.05454	-23.87698	1172.59777	1055.84514	-61.01876	1177.27357	1068.73500	5.57564	1228.74468	1001.27076	31.85967	1276.77017	836.26723	9.94626	1239.13036	837.91194	44.77348	1286.47314	1243.91826	-451.87026	1206.29047	1046.27160	-416.19416	1242.55340	1055.96817	-486.01655	1297.07251	1002.16646	-481.52697	1348.52195	835.99446	-440.69195	1325.12500	834.23074	-485.22035	1235.78610	843.89328	-134.30626	1221.86767	837.51932	-323.25491	1244.59350	837.99583	-157.82577	1242.11681	847.19111	-328.31766	
127	1.26000000	1400.28159	488.43573	-130.05808	1458.53256	405.88867	-149.23347	1448.40652	86.68679	-180.53113	1391.95539	54.59830	-233.25671	1572.48243	51.34394	-146.62178	1601.45382	85.53604	-201.32457	1111.74047	477.76523	-359.60028	1094.45197	381.16783	-344.16075	842.05103	157.27677	-291.04178	764.00640	169.21626	-234.85428	890.38161	39.04914	-310.60116	948.15173	48.34408	-258.63837	1475.09680	294.68529	-162.39985	1399.27597	390.37178	-103.73167	1409.73811	276.37702	-112.68832	1035.05541	442.51738	-373.97417	953.93508	352.72145	-366.18906	1358.98180	761.77732	-81.39155	1398.85379	661.97471	-109.62062	1363.49818	613.51990	-76.48439	1262.03303	714.01007	-54.12165	1306.85188	612.03758	-86.86649	1256.92874	697.50966	-392.33597	1236.78993	561.44134	-367.53130	1152.14734	709.42299	-416.60507	1129.86854	582.01422	-379.77934	1341.05346	927.81981	-119.27193	1129.83041	967.56204	-185.04192	1323.90141	912.26946	-376.82146	1129.07462	971.54454	-280.17388	1183.92052	1423.33890	-238.77970	1256.87576	1380.69172	-73.37765	1268.87271	1388.11248	-396.02474	1308.06933	1343.86956	-216.65784	1306.27613	1346.43639	-262.81545	1283.90479	1247.29713	-22.64339	1186.98056	1054.22445	-61.34857	1191.76204	1066.47863	5.33106	1243.13906	998.81735	31.12113	1290.71659	833.79709	7.92414	1253.28141	835.30416	42.82968	1298.77229	1246.27505	-450.11851	1218.40777	1048.70834	-414.34877	1254.61132	1058.53201	-485.02118	1308.50237	1004.17317	-481.62706	1357.70105	836.46122	-443.74178	1334.20479	835.93772	-488.30461	1250.15402	844.63597	-135.10910	1237.03805	837.09753	-324.06130	1258.65210	839.44927	-158.13523	1257.28501	846.61625	-328.63557	
128	1.27000000	1414.95499	490.20362	-131.53630	1470.93788	405.71499	-151.16085	1450.74778	86.68529	-180.56049	1392.87213	55.43428	-233.03767	1573.97054	48.60156	-146.95314	1603.79171	81.71163	-201.93424	1134.48655	474.27419	-363.27147	1114.46932	377.80293	-347.65749	853.61482	164.74526	-294.39328	776.97033	182.62871	-238.60303	893.22833	42.14474	-311.36995	951.62730	48.48701	-259.73398	1484.54297	294.11281	-163.95545	1412.65460	391.85914	-103.96371	1420.14202	277.59572	-112.24154	1057.59617	441.23380	-377.78982	973.00911	354.66070	-369.67629	1373.90137	764.59379	-83.54328	1413.61819	664.78230	-112.01066	1379.39186	616.47829	-77.80261	1277.57494	716.54379	-53.93730	1322.53497	614.44968	-86.76973	1274.95340	697.00997	-394.05867	1257.79013	560.38093	-370.54993	1169.77841	707.07145	-417.76865	1150.48891	578.74806	-382.45247	1355.28176	929.32311	-119.99039	1143.63458	968.31819	-187.12387	1338.71849	912.12391	-377.19774	1143.47730	970.93326	-282.76407	1196.01610	1423.50836	-235.44567	1269.37926	1379.65320	-70.59425	1281.03216	1390.29743	-393.10884	1320.46216	1344.49142	-214.04820	1318.69662	1347.46490	-260.16806	1297.62113	1245.90188	-21.55769	1201.45091	1052.89907	-61.67201	1206.37556	1064.54429	5.08235	1257.70259	996.72472	30.38095	1304.85301	831.68073	6.01092	1267.62570	833.06654	41.02524	1311.06876	1248.86372	-448.47893	1230.68779	1051.35345	-412.32947	1266.66941	1061.26915	-483.89544	1319.90415	1006.37303	-481.66690	1366.81940	837.20119	-446.81679	1343.16012	837.89758	-491.33886	1264.29798	845.90215	-135.69294	1252.13551	836.85951	-324.62923	1272.54442	841.56279	-158.08663	1272.25309	846.25949	-328.48414	
129	1.28000000	1428.90332	491.85775	-132.94979	1482.36062	405.41651	-152.97496	1452.45040	86.77142	-180.59930	1393.47585	55.94724	-232.87858	1574.90675	46.69122	-147.02164	1605.41989	78.86844	-202.25105	1158.72034	470.58087	-367.08203	1136.05349	374.45300	-351.21846	867.07110	172.69736	-298.11494	792.48455	196.98614	-242.79862	896.78987	46.27137	-312.28312	955.75720	49.17963	-261.16576	1493.09832	293.52277	-165.41305	1425.13268	393.22458	-104.17001	1429.62798	278.75531	-111.86183	1081.72621	439.76977	-381.81059	993.79081	356.53296	-373.40885	1388.53018	767.52211	-85.52205	1428.05577	667.67048	-114.24499	1395.03755	619.56562	-78.89293	1292.95311	719.23699	-53.45520	1337.94550	616.99129	-86.36717	1293.49847	696.71783	-395.70140	1279.78536	559.53203	-373.51532	1187.91174	704.49143	-419.03318	1172.06552	575.28206	-385.30359	1369.24185	931.32987	-120.57275	1157.18208	969.37018	-189.30012	1353.30508	912.16786	-377.29603	1157.63287	970.42276	-285.36583	1207.97358	1423.80387	-232.37680	1281.64434	1378.87468	-68.04073	1293.15972	1392.61911	-390.32865	1332.69182	1345.27872	-211.56709	1330.99973	1348.64148	-257.64042	1311.22672	1244.84878	-20.63899	1215.96268	1051.82634	-61.98920	1221.07490	1062.90512	4.82094	1272.39208	994.97550	29.63974	1319.21072	829.91878	4.22963	1282.15763	831.18582	39.36807	1323.35844	1251.63518	-446.97678	1243.17955	1054.13722	-410.28128	1278.71686	1064.14443	-482.69387	1331.28061	1008.73928	-481.68419	1375.89615	838.20509	-449.87926	1352.00842	840.09237	-494.28684	1278.19418	847.61192	-136.05573	1267.09511	836.79036	-324.95233	1286.21695	844.21291	-157.74537	1287.00707	846.11265	-327.92972	
130	1.29000000	1441.74110	493.16012	-134.22859	1492.63532	404.90516	-154.63205	1453.68495	86.90366	-180.70474	1393.86589	56.22334	-232.79054	1575.47840	45.39785	-146.97186	1606.53439	76.74509	-202.44620	1184.23803	466.86790	-370.92052	1159.07873	371.27216	-354.71643	882.50678	180.93995	-302.15525	810.65818	211.94839	-247.37917	901.33246	51.46188	-313.37181	960.70292	50.50748	-262.95490	1500.71001	292.83130	-166.75391	1436.38384	394.30391	-104.47276	1437.99276	279.70505	-111.71861	1107.30084	438.24422	-385.89130	1016.19865	358.38096	-377.30209	1402.74972	770.18249	-87.25091	1441.91096	670.17880	-116.19772	1409.92773	622.35445	-79.75761	1307.90746	721.89387	-52.87535	1352.61554	619.42055	-85.84307	1312.46731	696.68002	-397.26506	1302.59452	558.97153	-376.36614	1206.47031	701.77307	-420.39583	1194.44864	571.76824	-388.26812	1382.93691	933.69433	-121.02006	1170.44161	970.62826	-191.48774	1367.61125	912.40698	-377.15064	1171.52482	970.01092	-287.85113	1219.78772	1424.21733	-229.63767	1293.64791	1378.33243	-65.75319	1305.23100	1395.03415	-387.73319	1344.75049	1346.21124	-209.26084	1343.18046	1349.94326	-255.28011	1324.67942	1244.11136	-19.89728	1230.46679	1050.96579	-62.29953	1235.81630	1061.53458	4.54095	1287.16455	993.55425	28.89620	1333.79373	828.50692	2.58434	1296.87130	829.65248	37.85528	1335.63786	1254.52634	-445.61822	1255.87754	1056.99703	-408.33018	1290.75001	1067.11573	-481.48059	1342.63922	1011.23558	-481.71590	1384.94793	839.44516	-452.88847	1360.77844	842.49098	-497.11678	1291.83572	849.63587	-136.22447	1281.85246	836.88621	-325.05864	1299.62913	847.23649	-157.20818	1301.53310	846.17227	-327.07918	
131	1.30000000	1453.21845	493.96613	-135.29183	1501.70210	404.14041	-156.00923	1454.60115	87.05837	-180.89262	1394.13167	56.34772	-232.76553	1575.83635	44.53333	-146.89093	1607.30130	75.13025	-202.61384	1210.76905	463.35856	-374.65413	1183.36408	368.43362	-358.02850	899.92098	189.26828	-306.43886	831.38275	227.03255	-252.27696	907.27081	57.64268	-314.70486	966.76909	52.54514	-265.07948	1507.36287	291.98424	-167.88364	1446.16030	395.00004	-104.91277	1445.07102	280.34919	-111.88051	1134.10368	436.81858	-389.87923	1040.08702	360.26650	-381.26688	1416.45612	772.28150	-88.64143	1454.97213	671.96255	-117.74626	1423.62342	624.50871	-80.40312	1322.18996	724.34044	-52.42012	1366.14562	621.54664	-85.37514	1331.74500	696.94639	-398.74446	1325.99425	558.78494	-379.02450	1225.39185	699.03897	-421.83449	1217.46672	568.38601	-391.26233	1396.37498	936.22764	-121.35151	1183.41904	971.99749	-193.57664	1381.60621	912.86024	-376.82423	1185.14353	969.71137	-290.09605	1231.46311	1424.75678	-227.27341	1305.39207	1378.00841	-63.75839	1317.22185	1397.50016	-385.37011	1356.64630	1347.27519	-207.17548	1355.23744	1351.35122	-253.13663	1337.94773	1243.66457	-19.33584	1244.91533	1050.28799	-62.60689	1250.54853	1060.41238	4.23699	1301.97666	992.45198	28.14497	1348.57250	827.43876	1.05931	1311.75534	828.46345	36.47198	1347.90236	1257.47074	-444.39815	1268.71483	1059.88152	-406.57207	1302.76930	1070.13512	-480.32472	1353.98634	1013.81860	-481.79444	1393.99612	840.88248	-455.80688	1369.51508	845.05135	-499.80694	1305.23092	851.81084	-136.25438	1296.34632	837.15485	-325.01062	1312.77185	850.44653	-156.58068	1315.79729	846.44211	-326.05808	
